<mxfile host="Electron" agent="Mozilla/5.0 (Macintosh; Intel Mac OS X 10_15_7) AppleWebKit/537.36 (KHTML, like Gecko) draw.io/25.0.2 Chrome/128.0.6613.186 Electron/32.2.5 Safari/537.36" version="25.0.2">
  <diagram name="Page-1" id="Zhwb1OjdeR56BiCuKtfj">
    <mxGraphModel dx="1114" dy="821" grid="1" gridSize="10" guides="1" tooltips="1" connect="1" arrows="1" fold="1" page="1" pageScale="1" pageWidth="827" pageHeight="1169" math="0" shadow="0">
      <root>
        <mxCell id="0" />
        <mxCell id="1" parent="0" />
        <mxCell id="51s71SY8b_0A31aNgE3j-10" value="컨슈머 그룹 1&lt;div&gt;(&lt;font color=&quot;#3333ff&quot;&gt;read_committed&lt;/font&gt;)&lt;/div&gt;" style="rounded=1;whiteSpace=wrap;html=1;fontStyle=1;verticalAlign=top;fillColor=#f5f5f5;fontColor=#333333;strokeColor=#666666;" vertex="1" parent="1">
          <mxGeometry x="365" y="70" width="130" height="100" as="geometry" />
        </mxCell>
        <mxCell id="51s71SY8b_0A31aNgE3j-9" value="파티션 0" style="rounded=1;whiteSpace=wrap;html=1;fontStyle=1;verticalAlign=top;fillColor=#f5f5f5;fontColor=#333333;strokeColor=default;" vertex="1" parent="1">
          <mxGeometry x="160" y="70" width="120" height="250" as="geometry" />
        </mxCell>
        <mxCell id="51s71SY8b_0A31aNgE3j-1" value="프로듀서" style="rounded=0;whiteSpace=wrap;html=1;" vertex="1" parent="1">
          <mxGeometry x="20" y="118" width="80" height="30" as="geometry" />
        </mxCell>
        <mxCell id="51s71SY8b_0A31aNgE3j-2" value="메시지 0" style="rounded=0;whiteSpace=wrap;html=1;" vertex="1" parent="1">
          <mxGeometry x="180" y="120" width="80" height="30" as="geometry" />
        </mxCell>
        <mxCell id="51s71SY8b_0A31aNgE3j-13" style="edgeStyle=orthogonalEdgeStyle;rounded=0;orthogonalLoop=1;jettySize=auto;html=1;entryX=0;entryY=0.5;entryDx=0;entryDy=0;endArrow=block;endFill=1;" edge="1" parent="1" source="51s71SY8b_0A31aNgE3j-3" target="51s71SY8b_0A31aNgE3j-7">
          <mxGeometry relative="1" as="geometry" />
        </mxCell>
        <mxCell id="51s71SY8b_0A31aNgE3j-3" value="메시지 1&lt;div&gt;(LSO)&lt;/div&gt;" style="rounded=0;whiteSpace=wrap;html=1;" vertex="1" parent="1">
          <mxGeometry x="180" y="150" width="80" height="40" as="geometry" />
        </mxCell>
        <mxCell id="51s71SY8b_0A31aNgE3j-4" value="메시지 2" style="rounded=0;whiteSpace=wrap;html=1;" vertex="1" parent="1">
          <mxGeometry x="180" y="220" width="80" height="30" as="geometry" />
        </mxCell>
        <mxCell id="51s71SY8b_0A31aNgE3j-5" value="메시지 3" style="rounded=0;whiteSpace=wrap;html=1;" vertex="1" parent="1">
          <mxGeometry x="180" y="250" width="80" height="30" as="geometry" />
        </mxCell>
        <mxCell id="51s71SY8b_0A31aNgE3j-6" value="커밋" style="rounded=0;whiteSpace=wrap;html=1;fillColor=#dae8fc;strokeColor=#6c8ebf;" vertex="1" parent="1">
          <mxGeometry x="180" y="190" width="80" height="30" as="geometry" />
        </mxCell>
        <mxCell id="51s71SY8b_0A31aNgE3j-7" value="컨슈머" style="rounded=0;whiteSpace=wrap;html=1;" vertex="1" parent="1">
          <mxGeometry x="390" y="120" width="80" height="30" as="geometry" />
        </mxCell>
        <mxCell id="51s71SY8b_0A31aNgE3j-11" value="컨슈머 그룹 1&lt;div&gt;(&lt;font color=&quot;#3333ff&quot;&gt;read_uncommitted&lt;/font&gt;)&lt;/div&gt;" style="rounded=1;whiteSpace=wrap;html=1;fontStyle=1;verticalAlign=top;fillColor=#f5f5f5;fontColor=#333333;strokeColor=#666666;" vertex="1" parent="1">
          <mxGeometry x="365" y="200" width="130" height="100" as="geometry" />
        </mxCell>
        <mxCell id="51s71SY8b_0A31aNgE3j-12" value="컨슈머" style="rounded=0;whiteSpace=wrap;html=1;" vertex="1" parent="1">
          <mxGeometry x="390" y="250" width="80" height="30" as="geometry" />
        </mxCell>
        <mxCell id="51s71SY8b_0A31aNgE3j-15" style="edgeStyle=orthogonalEdgeStyle;rounded=0;orthogonalLoop=1;jettySize=auto;html=1;entryX=0;entryY=0.25;entryDx=0;entryDy=0;endArrow=block;endFill=1;" edge="1" parent="1" source="51s71SY8b_0A31aNgE3j-1" target="51s71SY8b_0A31aNgE3j-9">
          <mxGeometry relative="1" as="geometry" />
        </mxCell>
        <mxCell id="51s71SY8b_0A31aNgE3j-14" style="edgeStyle=orthogonalEdgeStyle;rounded=0;orthogonalLoop=1;jettySize=auto;html=1;endArrow=block;endFill=1;" edge="1" parent="1" source="51s71SY8b_0A31aNgE3j-5" target="51s71SY8b_0A31aNgE3j-12">
          <mxGeometry relative="1" as="geometry" />
        </mxCell>
      </root>
    </mxGraphModel>
  </diagram>
</mxfile>
